<svg viewBox="0 0 693 533" xmlns="http://www.w3.org/2000/svg" xmlns:serif="http://www.serif.com/" fill-rule="evenodd" clip-rule="evenodd" stroke-linecap="round" stroke-linejoin="round" stroke-miterlimit="1.5"><path serif:id="Emacs for writers" fill="none" d="M0 0H693V533H0z"/><clipPath id="a"><path d="M0 0H693V533H0z"/></clipPath><g clip-path="url(#a)"><path d="M687 27.989C687 16.405 677.595 7 666.011 7H27.989C16.405 7 7 16.405 7 27.989v478.022C7 517.595 16.405 527 27.989 527h638.022c11.584 0 20.989-9.405 20.989-20.989V27.989z" fill="none"/><clipPath id="b"><path d="M687 27.989C687 16.405 677.595 7 666.011 7H27.989C16.405 7 7 16.405 7 27.989v478.022C7 517.595 16.405 527 27.989 527h638.022c11.584 0 20.989-9.405 20.989-20.989V27.989z"/></clipPath><g clip-path="url(#b)" fill="none" stroke="rgb(194,194,194)" stroke-width="13px"><path d="M7 7H233.667V527H7z"/><path d="M233.667 7H460.334V527H233.667z"/><path d="M460.333 7H687V267H460.333z"/></g><path d="M687 27.989C687 16.405 677.595 7 666.011 7H27.989C16.405 7 7 16.405 7 27.989v478.022C7 517.595 16.405 527 27.989 527h638.022c11.584 0 20.989-9.405 20.989-20.989V27.989z" fill="none" stroke="rgb(194,194,194)" stroke-width="13px"/><path d="M45 46h138" fill="none" stroke="rgb(194,194,194)" stroke-width="21px"/><path d="M70 125h113m-138 0h1" fill="none" stroke="rgb(194,194,194)" stroke-width="13px"/><path d="M70 174.667h113m-138 0h1m44.471 35.666H183m-113 0h.819" fill="none" stroke="rgb(170,72,116)" stroke-width="13px"/><g><path d="M90.471 244.667H183m-113 0h.819" fill="none" stroke="rgb(170,72,116)" stroke-width="13px"/></g><g><path d="M90.471 279H183m-113 0h.819" fill="none" stroke="rgb(170,72,116)" stroke-width="13px"/></g><g><path d="M303 50.667h113m-138 0h1m44.471 35.666H416m-113 0h.819m19.652 34.334H416m-113 0h.819" fill="none" stroke="rgb(170,72,116)" stroke-width="13px"/><g><path d="M323.471 203.333H416M323.471 174H416m-92.529-29.333H416m-92.529 88H416" fill="none" stroke="rgb(194,194,194)" stroke-width="13px"/></g><g><path d="M323.471 361.667H416m-92.529-29.334H416M323.471 303H416m-92.529 88H416" fill="none" stroke="rgb(194,194,194)" stroke-width="13px"/></g><g><path d="M323.471 279H416m-113 0h.819" fill="none" stroke="rgb(170,72,116)" stroke-width="13px"/></g></g><g><path d="M70 324h113m-138 0h1m24 49.667h113m-138 0h1" fill="none" stroke="rgb(194,194,194)" stroke-width="13px"/><g><path d="M70 423.333h113m-138 0h1" fill="none" stroke="rgb(194,194,194)" stroke-width="13px"/></g><g><path d="M70 473h113m-138 0h1" fill="none" stroke="rgb(194,194,194)" stroke-width="13px"/></g></g><g fill="none" stroke-width="13px"><path d="M493.333 113.333h160M493.333 82h160m-160 62.667h160" stroke="rgb(194,194,194)"/><path d="M493.333 50.667h118" stroke="rgb(201,111,48)"/></g></g></svg>